# xmcd
#
# Track frame offsets:
#	150
#	17963
#	36627
#	52465
#	71693
#	91207
#	105068
#	124565
#	140642
#	156498
#
# Disc length: 2331 seconds
#
# Revision: 0
# Processed by: cddbd v1.5.2PL0 Copyright (c) Steve Scherf et al.
# Submitted via: EasyCDDAExtractor 16.0.4.1
#
DISCID=9009190a
DTITLE=Mate Bulić - Domu Mom
DYEAR=2011
DGENRE=
TTITLE0=Domu Mom
TTITLE1=Dvije Lude
TTITLE2=Sto Života Dao Bi'
TTITLE3=Hvala Ti Za Sve [ Mojoj Ženi ]
TTITLE4=Svatovska [ Mojoj Kćeri ]
TTITLE5=Grijeh Mladosti
TTITLE6=Ilindan
TTITLE7=Ženo
TTITLE8=Ljubim Tebe Slavonijo
TTITLE9=Pjevam I Plačem
EXTD=
EXTT0=
EXTT1=
EXTT2=
EXTT3=
EXTT4=
EXTT5=
EXTT6=
EXTT7=
EXTT8=
EXTT9=
PLAYORDER=
